<svg xmlns="http://www.w3.org/2000/svg" width="27.274" height="25.948" viewBox="0 0 27.274 25.948"><defs><style>.a{fill:#1d3557;}</style></defs><path class="a" d="M24.9,5.6H2.371A2.373,2.373,0,0,0,0,7.975V24.849a2.374,2.374,0,0,0,2.371,2.372H9.728v2.554H6.9a.888.888,0,0,0,0,1.776H20.377a.888.888,0,1,0,0-1.776H17.544V27.221H24.9a2.375,2.375,0,0,0,2.372-2.372V7.975A2.374,2.374,0,0,0,24.9,5.6ZM1.776,10.994H25.5V21.83H1.776ZM2.371,7.38H24.9a.6.6,0,0,1,.6.595V9.218H1.776V7.975A.6.6,0,0,1,2.371,7.38Zm13.4,22.4H11.5V27.221h4.264Zm9.134-4.33H2.371a.6.6,0,0,1-.595-.6V23.606H25.5v1.243A.6.6,0,0,1,24.9,25.445Z" transform="translate(0 -5.604)"/></svg>