<svg xmlns="http://www.w3.org/2000/svg" width="21.85" height="19.439" viewBox="0 0 21.85 19.439"><defs><style>.a{fill:#d90000;}</style></defs><path class="a" d="M20.117,1.9A5.875,5.875,0,0,0,15.746,0a5.5,5.5,0,0,0-3.433,1.185,7.024,7.024,0,0,0-1.388,1.449A7.02,7.02,0,0,0,9.537,1.185,5.5,5.5,0,0,0,6.1,0,5.876,5.876,0,0,0,1.734,1.9,6.83,6.83,0,0,0,0,6.566,8.133,8.133,0,0,0,2.168,11.89a46.211,46.211,0,0,0,5.425,5.092c.752.641,1.6,1.367,2.488,2.14a1.283,1.283,0,0,0,1.689,0c.885-.774,1.737-1.5,2.489-2.141a46.185,46.185,0,0,0,5.424-5.091A8.132,8.132,0,0,0,21.85,6.566,6.829,6.829,0,0,0,20.117,1.9Zm0,0" transform="translate(0)"/></svg>