<svg xmlns="http://www.w3.org/2000/svg" width="28.362" height="28.268" viewBox="0 0 28.362 28.268"><defs><style>.a{fill:#9e9e9e;}</style></defs><g transform="translate(0 -0.85)"><g transform="translate(0 0.85)"><path class="a" d="M14.134,26.762H3.533a1.178,1.178,0,0,1-1.178-1.178V4.384A1.178,1.178,0,0,1,3.533,3.206h10.6a1.178,1.178,0,0,0,0-2.356H3.533A3.538,3.538,0,0,0,0,4.384v21.2a3.538,3.538,0,0,0,3.533,3.533h10.6a1.178,1.178,0,1,0,0-2.356Z" transform="translate(0 -0.85)"/></g><g transform="translate(9.423 6.739)"><path class="a" d="M188.689,114.571l-7.161-7.067a1.178,1.178,0,0,0-1.654,1.677l5.118,5.051H171.278a1.178,1.178,0,0,0,0,2.356h13.714l-5.118,5.051a1.178,1.178,0,1,0,1.654,1.677l7.161-7.067a1.177,1.177,0,0,0,0-1.677Z" transform="translate(-170.1 -107.165)"/></g></g></svg>