<svg xmlns="http://www.w3.org/2000/svg" width="27.893" height="27.893" viewBox="0 0 27.893 27.893"><defs><style>.a{fill:#9e9e9e;}</style></defs><g transform="translate(0)"><path class="a" d="M14.822,27.893H13.071A2.571,2.571,0,0,1,10.5,25.325v-.592a11.261,11.261,0,0,1-1.749-.726l-.42.42a2.568,2.568,0,0,1-3.632,0L3.466,23.189a2.568,2.568,0,0,1,0-3.632l.419-.419A11.261,11.261,0,0,1,3.16,17.39H2.568A2.571,2.571,0,0,1,0,14.822V13.071A2.571,2.571,0,0,1,2.568,10.5H3.16a11.264,11.264,0,0,1,.726-1.749l-.42-.42a2.568,2.568,0,0,1,0-3.632L4.7,3.466a2.567,2.567,0,0,1,3.632,0l.419.419A11.271,11.271,0,0,1,10.5,3.16V2.568A2.571,2.571,0,0,1,13.071,0h1.751A2.571,2.571,0,0,1,17.39,2.568V3.16a11.261,11.261,0,0,1,1.749.726l.42-.42a2.568,2.568,0,0,1,3.632,0L24.427,4.7a2.568,2.568,0,0,1,0,3.632l-.419.419a11.261,11.261,0,0,1,.726,1.749h.592a2.571,2.571,0,0,1,2.568,2.568v1.751a2.571,2.571,0,0,1-2.568,2.568h-.592a11.263,11.263,0,0,1-.726,1.749l.42.42a2.568,2.568,0,0,1,0,3.632l-1.237,1.237a2.567,2.567,0,0,1-3.632,0l-.419-.419a11.271,11.271,0,0,1-1.749.726v.592A2.571,2.571,0,0,1,14.822,27.893Zm-5.794-5.6a9.632,9.632,0,0,0,2.5,1.036.817.817,0,0,1,.613.791v1.207a.934.934,0,0,0,.933.933h1.751a.934.934,0,0,0,.933-.933V24.119a.817.817,0,0,1,.613-.791,9.632,9.632,0,0,0,2.5-1.036.817.817,0,0,1,.994.126l.855.855a.933.933,0,0,0,1.32,0l1.238-1.238a.933.933,0,0,0,0-1.32l-.855-.855a.817.817,0,0,1-.126-.994,9.631,9.631,0,0,0,1.036-2.5.817.817,0,0,1,.791-.613h1.207a.934.934,0,0,0,.933-.933V13.071a.934.934,0,0,0-.933-.933H24.119a.817.817,0,0,1-.791-.613,9.633,9.633,0,0,0-1.036-2.5.817.817,0,0,1,.126-.994l.855-.855a.933.933,0,0,0,0-1.32L22.034,4.622a.933.933,0,0,0-1.32,0l-.855.855a.817.817,0,0,1-.994.126,9.632,9.632,0,0,0-2.5-1.036.817.817,0,0,1-.613-.791V2.568a.934.934,0,0,0-.933-.933H13.071a.934.934,0,0,0-.933.933V3.774a.817.817,0,0,1-.613.791A9.632,9.632,0,0,0,9.028,5.6a.817.817,0,0,1-.994-.126L7.18,4.622a.933.933,0,0,0-1.32,0L4.622,5.859a.933.933,0,0,0,0,1.32l.855.855a.817.817,0,0,1,.126.994,9.631,9.631,0,0,0-1.036,2.5.817.817,0,0,1-.791.613H2.568a.935.935,0,0,0-.933.933v1.751a.934.934,0,0,0,.933.933H3.774a.817.817,0,0,1,.791.613,9.633,9.633,0,0,0,1.036,2.5.817.817,0,0,1-.126.994l-.855.855a.933.933,0,0,0,0,1.32l1.238,1.238a.933.933,0,0,0,1.32,0l.855-.855a.821.821,0,0,1,.994-.126Z" transform="translate(0)"/><path class="a" d="M150.669,156.738a6.069,6.069,0,1,1,6.069-6.069A6.076,6.076,0,0,1,150.669,156.738Zm0-10.5a4.435,4.435,0,1,0,4.435,4.435A4.44,4.44,0,0,0,150.669,146.234Z" transform="translate(-136.722 -136.722)"/></g></svg>