<svg xmlns="http://www.w3.org/2000/svg" width="18.446" height="32.636" viewBox="0 0 18.446 32.636"><defs><style>.a{fill:#9e9e9e;}</style></defs><g transform="translate(-111.304)"><g transform="translate(111.304 6.031)"><path class="a" d="M129.456,99.55l-4.4-4.612a1.066,1.066,0,0,0-.77-.33h-7.52a1.065,1.065,0,0,0-.77.33l-4.4,4.612a1.065,1.065,0,0,0-.294.735v19.156a1.776,1.776,0,0,0,1.774,1.774h14.9a1.776,1.776,0,0,0,1.774-1.774V100.285A1.065,1.065,0,0,0,129.456,99.55Zm-1.834,19.536H113.432V100.711l3.79-3.973h6.609l3.79,3.973Z" transform="translate(-111.304 -94.609)"/></g><g transform="translate(119.463)"><path class="a" d="M240.368,0A1.064,1.064,0,0,0,239.3,1.064v11a1.064,1.064,0,0,0,2.128,0v-11A1.064,1.064,0,0,0,240.368,0Z" transform="translate(-239.304)"/></g><g transform="translate(116.98 11.352)"><path class="a" d="M204.073,178.087a3.725,3.725,0,1,0,3.725,3.725A3.729,3.729,0,0,0,204.073,178.087Zm0,5.321a1.6,1.6,0,1,1,1.6-1.6A1.6,1.6,0,0,1,204.073,183.408Z" transform="translate(-200.348 -178.087)"/></g></g></svg>