<svg xmlns="http://www.w3.org/2000/svg" width="30.882" height="21.623" viewBox="0 0 30.882 21.623"><defs><style>.a{fill:#fff;}</style></defs><path class="a" d="M30.247-2.7a3.869,3.869,0,0,0-2.722-2.722c-2.417-.661-12.083-.661-12.083-.661s-9.666,0-12.083.636A3.947,3.947,0,0,0,.637-2.7,40.767,40.767,0,0,0,0,4.729a40.617,40.617,0,0,0,.636,7.428,3.87,3.87,0,0,0,2.722,2.722c2.442.661,12.083.661,12.083.661s9.666,0,12.083-.636a3.869,3.869,0,0,0,2.722-2.722,40.78,40.78,0,0,0,.636-7.428A38.7,38.7,0,0,0,30.247-2.7ZM12.364,9.359V.1L20.4,4.729Zm0,0" transform="translate(-0.001 6.082)"/></svg>